<?xml version="1.0" encoding="UTF-8" standalone="no"?>
<!DOCTYPE svg PUBLIC "-//W3C//DTD SVG 1.1//EN"
 "http://www.w3.org/Graphics/SVG/1.1/DTD/svg11.dtd">
<!-- Generated by graphviz version 2.38.0 (20140413.2041)
 -->
<!-- Title: binaryTree Pages: 1 -->
<svg width="566pt" height="260pt"
 viewBox="0.00 0.00 566.00 260.00" xmlns="http://www.w3.org/2000/svg" xmlns:xlink="http://www.w3.org/1999/xlink">
<g id="graph0" class="graph" transform="scale(1 1) rotate(0) translate(4 256)">
<title>binaryTree</title>
<polygon fill="white" stroke="none" points="-4,4 -4,-256 562,-256 562,4 -4,4"/>
<!-- node0 -->
<g id="node1" class="node"><title>node0</title>
<ellipse fill="none" stroke="black" cx="279" cy="-234" rx="27" ry="18"/>
<text text-anchor="middle" x="279" y="-230.3" font-family="Arial" font-size="14.00">1</text>
</g>
<!-- node1 -->
<g id="node2" class="node"><title>node1</title>
<ellipse fill="none" stroke="black" cx="207" cy="-162" rx="27" ry="18"/>
<text text-anchor="middle" x="207" y="-158.3" font-family="Arial" font-size="14.00">2</text>
</g>
<!-- node0&#45;&gt;node1 -->
<g id="edge1" class="edge"><title>node0&#45;&gt;node1</title>
<path fill="none" stroke="black" d="M264.43,-218.834C254.25,-208.938 240.476,-195.546 228.969,-184.359"/>
<polygon fill="black" stroke="black" points="231.405,-181.846 221.796,-177.385 226.526,-186.865 231.405,-181.846"/>
</g>
<!-- node8 -->
<g id="node9" class="node"><title>node8</title>
<ellipse fill="none" stroke="black" cx="351" cy="-162" rx="27" ry="18"/>
<text text-anchor="middle" x="351" y="-158.3" font-family="Arial" font-size="14.00">2</text>
</g>
<!-- node0&#45;&gt;node8 -->
<g id="edge8" class="edge"><title>node0&#45;&gt;node8</title>
<path fill="none" stroke="black" d="M293.57,-218.834C303.75,-208.938 317.524,-195.546 329.031,-184.359"/>
<polygon fill="black" stroke="black" points="331.474,-186.865 336.204,-177.385 326.595,-181.846 331.474,-186.865"/>
</g>
<!-- node2 -->
<g id="node3" class="node"><title>node2</title>
<ellipse fill="none" stroke="black" cx="99" cy="-90" rx="27" ry="18"/>
<text text-anchor="middle" x="99" y="-86.3" font-family="Arial" font-size="14.00">3</text>
</g>
<!-- node1&#45;&gt;node2 -->
<g id="edge2" class="edge"><title>node1&#45;&gt;node2</title>
<path fill="none" stroke="black" d="M188.188,-148.807C170.998,-137.665 145.382,-121.062 126.007,-108.504"/>
<polygon fill="black" stroke="black" points="127.892,-105.555 117.597,-103.053 124.084,-111.429 127.892,-105.555"/>
</g>
<!-- node5 -->
<g id="node6" class="node"><title>node5</title>
<ellipse fill="none" stroke="black" cx="207" cy="-90" rx="27" ry="18"/>
<text text-anchor="middle" x="207" y="-86.3" font-family="Arial" font-size="14.00">3</text>
</g>
<!-- node1&#45;&gt;node5 -->
<g id="edge5" class="edge"><title>node1&#45;&gt;node5</title>
<path fill="none" stroke="black" d="M207,-143.697C207,-135.983 207,-126.712 207,-118.112"/>
<polygon fill="black" stroke="black" points="210.5,-118.104 207,-108.104 203.5,-118.104 210.5,-118.104"/>
</g>
<!-- node3 -->
<g id="node4" class="node"><title>node3</title>
<ellipse fill="none" stroke="black" cx="27" cy="-18" rx="27" ry="18"/>
<text text-anchor="middle" x="27" y="-14.3" font-family="Arial" font-size="14.00">4</text>
</g>
<!-- node2&#45;&gt;node3 -->
<g id="edge3" class="edge"><title>node2&#45;&gt;node3</title>
<path fill="none" stroke="black" d="M84.4297,-74.8345C74.2501,-64.9376 60.4761,-51.5462 48.9694,-40.3591"/>
<polygon fill="black" stroke="black" points="51.4055,-37.8461 41.7957,-33.3847 46.5259,-42.865 51.4055,-37.8461"/>
</g>
<!-- node4 -->
<g id="node5" class="node"><title>node4</title>
<ellipse fill="none" stroke="black" cx="99" cy="-18" rx="27" ry="18"/>
<text text-anchor="middle" x="99" y="-14.3" font-family="Arial" font-size="14.00">4</text>
</g>
<!-- node2&#45;&gt;node4 -->
<g id="edge4" class="edge"><title>node2&#45;&gt;node4</title>
<path fill="none" stroke="black" d="M99,-71.6966C99,-63.9827 99,-54.7125 99,-46.1124"/>
<polygon fill="black" stroke="black" points="102.5,-46.1043 99,-36.1043 95.5001,-46.1044 102.5,-46.1043"/>
</g>
<!-- node6 -->
<g id="node7" class="node"><title>node6</title>
<ellipse fill="none" stroke="black" cx="171" cy="-18" rx="27" ry="18"/>
<text text-anchor="middle" x="171" y="-14.3" font-family="Arial" font-size="14.00">4</text>
</g>
<!-- node5&#45;&gt;node6 -->
<g id="edge6" class="edge"><title>node5&#45;&gt;node6</title>
<path fill="none" stroke="black" d="M198.65,-72.7646C194.288,-64.2831 188.853,-53.7144 183.959,-44.1974"/>
<polygon fill="black" stroke="black" points="186.99,-42.4395 179.304,-35.1473 180.765,-45.6409 186.99,-42.4395"/>
</g>
<!-- node7 -->
<g id="node8" class="node"><title>node7</title>
<ellipse fill="none" stroke="black" cx="243" cy="-18" rx="27" ry="18"/>
<text text-anchor="middle" x="243" y="-14.3" font-family="Arial" font-size="14.00">4</text>
</g>
<!-- node5&#45;&gt;node7 -->
<g id="edge7" class="edge"><title>node5&#45;&gt;node7</title>
<path fill="none" stroke="black" d="M215.35,-72.7646C219.712,-64.2831 225.147,-53.7144 230.041,-44.1974"/>
<polygon fill="black" stroke="black" points="233.235,-45.6409 234.696,-35.1473 227.01,-42.4395 233.235,-45.6409"/>
</g>
<!-- node9 -->
<g id="node10" class="node"><title>node9</title>
<ellipse fill="none" stroke="black" cx="351" cy="-90" rx="27" ry="18"/>
<text text-anchor="middle" x="351" y="-86.3" font-family="Arial" font-size="14.00">3</text>
</g>
<!-- node8&#45;&gt;node9 -->
<g id="edge9" class="edge"><title>node8&#45;&gt;node9</title>
<path fill="none" stroke="black" d="M351,-143.697C351,-135.983 351,-126.712 351,-118.112"/>
<polygon fill="black" stroke="black" points="354.5,-118.104 351,-108.104 347.5,-118.104 354.5,-118.104"/>
</g>
<!-- node12 -->
<g id="node13" class="node"><title>node12</title>
<ellipse fill="none" stroke="black" cx="459" cy="-90" rx="27" ry="18"/>
<text text-anchor="middle" x="459" y="-86.3" font-family="Arial" font-size="14.00">3</text>
</g>
<!-- node8&#45;&gt;node12 -->
<g id="edge12" class="edge"><title>node8&#45;&gt;node12</title>
<path fill="none" stroke="black" d="M369.812,-148.807C387.002,-137.665 412.618,-121.062 431.993,-108.504"/>
<polygon fill="black" stroke="black" points="433.916,-111.429 440.403,-103.053 430.108,-105.555 433.916,-111.429"/>
</g>
<!-- node10 -->
<g id="node11" class="node"><title>node10</title>
<ellipse fill="none" stroke="black" cx="315" cy="-18" rx="27" ry="18"/>
<text text-anchor="middle" x="315" y="-14.3" font-family="Arial" font-size="14.00">4</text>
</g>
<!-- node9&#45;&gt;node10 -->
<g id="edge10" class="edge"><title>node9&#45;&gt;node10</title>
<path fill="none" stroke="black" d="M342.65,-72.7646C338.288,-64.2831 332.853,-53.7144 327.959,-44.1974"/>
<polygon fill="black" stroke="black" points="330.99,-42.4395 323.304,-35.1473 324.765,-45.6409 330.99,-42.4395"/>
</g>
<!-- node11 -->
<g id="node12" class="node"><title>node11</title>
<ellipse fill="none" stroke="black" cx="387" cy="-18" rx="27" ry="18"/>
<text text-anchor="middle" x="387" y="-14.3" font-family="Arial" font-size="14.00">4</text>
</g>
<!-- node9&#45;&gt;node11 -->
<g id="edge11" class="edge"><title>node9&#45;&gt;node11</title>
<path fill="none" stroke="black" d="M359.35,-72.7646C363.712,-64.2831 369.147,-53.7144 374.041,-44.1974"/>
<polygon fill="black" stroke="black" points="377.235,-45.6409 378.696,-35.1473 371.01,-42.4395 377.235,-45.6409"/>
</g>
<!-- node13 -->
<g id="node14" class="node"><title>node13</title>
<ellipse fill="none" stroke="black" cx="459" cy="-18" rx="27" ry="18"/>
<text text-anchor="middle" x="459" y="-14.3" font-family="Arial" font-size="14.00">4</text>
</g>
<!-- node12&#45;&gt;node13 -->
<g id="edge13" class="edge"><title>node12&#45;&gt;node13</title>
<path fill="none" stroke="black" d="M459,-71.6966C459,-63.9827 459,-54.7125 459,-46.1124"/>
<polygon fill="black" stroke="black" points="462.5,-46.1043 459,-36.1043 455.5,-46.1044 462.5,-46.1043"/>
</g>
<!-- node14 -->
<g id="node15" class="node"><title>node14</title>
<ellipse fill="none" stroke="black" cx="531" cy="-18" rx="27" ry="18"/>
<text text-anchor="middle" x="531" y="-14.3" font-family="Arial" font-size="14.00">4</text>
</g>
<!-- node12&#45;&gt;node14 -->
<g id="edge14" class="edge"><title>node12&#45;&gt;node14</title>
<path fill="none" stroke="black" d="M473.57,-74.8345C483.75,-64.9376 497.524,-51.5462 509.031,-40.3591"/>
<polygon fill="black" stroke="black" points="511.474,-42.865 516.204,-33.3847 506.595,-37.8461 511.474,-42.865"/>
</g>
</g>
</svg>
