<?xml version="1.0" encoding="UTF-8" standalone="no"?>
<!DOCTYPE svg PUBLIC "-//W3C//DTD SVG 1.1//EN"
 "http://www.w3.org/Graphics/SVG/1.1/DTD/svg11.dtd">
<!-- Generated by graphviz version 2.38.0 (20140413.2041)
 -->
<!-- Title: binaryTree Pages: 1 -->
<svg width="134pt" height="116pt"
 viewBox="0.00 0.00 134.00 116.00" xmlns="http://www.w3.org/2000/svg" xmlns:xlink="http://www.w3.org/1999/xlink">
<g id="graph0" class="graph" transform="scale(1 1) rotate(0) translate(4 112)">
<title>binaryTree</title>
<polygon fill="white" stroke="none" points="-4,4 -4,-112 130,-112 130,4 -4,4"/>
<!-- node0 -->
<g id="node1" class="node"><title>node0</title>
<ellipse fill="none" stroke="black" cx="63" cy="-90" rx="27" ry="18"/>
<text text-anchor="middle" x="63" y="-86.3" font-family="Arial" font-size="14.00">5</text>
</g>
<!-- node1 -->
<g id="node2" class="node"><title>node1</title>
<ellipse fill="none" stroke="black" cx="27" cy="-18" rx="27" ry="18"/>
<text text-anchor="middle" x="27" y="-14.3" font-family="Arial" font-size="14.00">4</text>
</g>
<!-- node0&#45;&gt;node1 -->
<g id="edge1" class="edge"><title>node0&#45;&gt;node1</title>
<path fill="none" stroke="black" d="M54.6504,-72.7646C50.2885,-64.2831 44.8531,-53.7144 39.9587,-44.1974"/>
<polygon fill="black" stroke="black" points="42.9904,-42.4395 35.3043,-35.1473 36.7654,-45.6409 42.9904,-42.4395"/>
</g>
<!-- null -->
<g id="node3" class="node"><title>null</title>
<ellipse fill="none" stroke="black" cx="99" cy="-18" rx="27" ry="18"/>
<text text-anchor="middle" x="99" y="-14.3" font-family="Arial" font-size="14.00">null</text>
</g>
<!-- node0&#45;&gt;null -->
<g id="edge2" class="edge"><title>node0&#45;&gt;null</title>
<path fill="none" stroke="black" d="M71.3496,-72.7646C75.7115,-64.2831 81.1469,-53.7144 86.0413,-44.1974"/>
<polygon fill="black" stroke="black" points="89.2346,-45.6409 90.6957,-35.1473 83.0096,-42.4395 89.2346,-45.6409"/>
</g>
<!-- &#45;2122331568 -->
<g id="node4" class="node"><title>&#45;2122331568</title>
<ellipse fill="black" stroke="black" cx="110" cy="-90" rx="1.8" ry="1.8"/>
</g>
</g>
</svg>
